Coordinates
version=1
nRows=22
nColumns=24
inDegrees=yes

Units are S.I. units (second, meters, Newtons, ...)
Angles are in degrees.

endheader
time	pelvis_tilt	pelvis_list	pelvis_rotation	pelvis_tx	pelvis_ty	pelvis_tz	hip_flexion_r	hip_adduction_r	hip_rotation_r	knee_angle_r	ankle_angle_r	subtalar_angle_r	mtp_angle_r	hip_flexion_l	hip_adduction_l	hip_rotation_l	knee_angle_l	ankle_angle_l	subtalar_angle_l	mtp_angle_l	lumbar_extension	lumbar_bending	lumbar_rotation
      4.57500000	     -3.81522942	      9.41294271	     -6.04652908	      0.43236683	      1.00949031	     -0.21871057	      9.89461131	    -13.63905198	     -3.94505711	    -62.56228714	     -9.75960947	     -1.19043836	      0.00000000	     20.93027806	     10.96861698	     -7.52660439	    -17.86203626	      8.38500901	     -9.14257314	      0.00000000	     -6.21984178	    -12.78725234	      3.18591275
      4.58000000	     -3.74492928	      9.45916580	     -6.03481528	      0.43843297	      1.01037133	     -0.21916964	     10.65875299	    -13.67869888	     -3.89025082	    -63.46685232	     -9.10487781	     -1.56795268	      0.00000000	     20.34775061	     11.13344128	     -7.38872335	    -17.59665471	      8.67027087	     -9.07271053	      0.00000000	     -6.33274252	    -12.79955548	      3.02601762
      4.58500000	     -3.69598583	      9.54740788	     -6.01293283	      0.44452672	      1.01120101	     -0.21968971	     11.43870388	    -13.76115091	     -3.79494553	    -64.32818134	     -8.10021621	     -1.56896631	      0.00000000	     19.78217769	     11.34546575	     -7.30434842	    -17.29876333	      8.89312176	     -9.06890968	      0.00000000	     -6.40651939	    -12.85266434	      2.79703725
      4.59000000	     -3.64761943	      9.56476085	     -5.97144072	      0.45059239	      1.01208557	     -0.22021257	     12.18871820	    -13.76369037	     -3.75274840	    -65.08936546	     -7.03363840	     -1.55241270	      0.00000000	     19.19299126	     11.49539886	     -7.11373837	    -16.98379991	      9.11747262	     -9.06554832	      0.00000000	     -6.48929140	    -12.82209385	      2.59256900
      4.59500000	     -3.59579901	      9.55952065	     -5.90631235	      0.45659846	      1.01298790	     -0.22078561	     12.91863974	    -13.75104924	     -3.75673717	    -65.77735960	     -5.86338055	     -1.44083419	      0.00000000	     18.60027788	     11.63200021	     -6.89432173	    -16.67070057	      9.30255949	     -9.10475561	      0.00000000	     -6.59275407	    -12.75845019	      2.36610391
      4.60000000	     -3.54209374	      9.52784929	     -5.82125027	      0.46261249	      1.01391444	     -0.22138695	     13.62192266	    -13.71565392	     -3.80315849	    -66.38105038	     -4.64688086	     -1.27633379	      0.00000000	     17.99031678	     11.74968066	     -6.62657408	    -16.34129661	      9.46877758	     -9.16482848	      0.00000000	     -6.69956245	    -12.66068192	      2.12656028
      4.60500000	     -3.48836140	      9.46954745	     -5.71624361	      0.46862637	      1.01486332	     -0.22198265	     14.30044811	    -13.65283334	     -3.88626476	    -66.90107637	     -3.41884952	     -1.07539642	      0.00000000	     17.36728275	     11.84323154	     -6.31477171	    -15.99986356	      9.61694691	     -9.23497056	      0.00000000	     -6.80916283	    -12.53438602	      1.87497204
      4.61000000	     -3.40408629	      9.42220517	     -5.57445593	      0.47467058	      1.01584695	     -0.22270195	     14.92153137	    -13.63471160	     -4.05021467	    -67.34472325	     -2.18803999	     -0.86651822	      0.00000000	     16.69415589	     11.97567000	     -5.90463282	    -15.62472870	      9.66312332	     -9.45347527	      0.00000000	     -6.95582400	    -12.41032553	      1.60241209
      4.61500000	     -3.33215385	      9.32269651	     -5.42543429	      0.48069025	      1.01683143	     -0.22337214	     15.53309493	    -13.54927613	     -4.22693353	    -67.70726663	     -1.01116509	     -0.64015741	      0.00000000	     16.03226548	     12.04108398	     -5.50754255	    -15.26541004	      9.77402845	     -9.59024960	      0.00000000	     -7.09203522	    -12.22712554	      1.31715160
      4.62000000	     -3.26494080	      9.20332005	     -5.25788158	      0.48669613	      1.01781574	     -0.22405621	     16.12741834	    -13.44547115	     -4.43682441	    -67.99429430	      0.12974808	     -0.41108037	      0.00000000	     15.37151261	     12.08499003	     -5.09035003	    -14.90585281	      9.85332456	     -9.73894477	      0.00000000	     -7.22726030	    -12.02078184	      1.02598369
      4.62500000	     -3.21050228	      9.05523568	     -5.09184926	      0.49268464	      1.01876418	     -0.22475009	     16.72310197	    -13.30774447	     -4.65401217	    -68.21455369	      1.20605631	     -0.17483035	      0.00000000	     14.72580281	     12.09224649	     -4.70031283	    -14.55235588	      9.96736803	     -9.88694713	      0.00000000	     -7.34690424	    -11.77355853	      0.73860104
      4.63000000	     -3.12227366	      8.92409037	     -4.88576141	      0.49868396	      1.01976429	     -0.22549143	     17.25496568	    -13.20374842	     -4.92912047	    -68.35737912	      2.21660834	      0.00532480	      0.00000000	     14.01277862	     12.13308642	     -4.13692310	    -14.14830549	      9.97417004	    -10.12674543	      0.00000000	     -7.51408358	    -11.55271350	      0.41906438
      4.63500000	     -3.08512349	      8.73889476	     -4.72341662	      0.50459985	      1.02067921	     -0.22613122	     17.84280642	    -13.00649482	     -5.14691084	    -68.43919600	      3.18635483	      0.23131530	      0.00000000	     13.38570057	     12.08091860	     -3.76294959	    -13.79592419	     10.07776139	    -10.24375527	      0.00000000	     -7.62020669	    -11.26569104	      0.15875231
      4.64000000	     -2.99250437	      8.58914812	     -4.47639867	      0.51061968	      1.02165874	     -0.22693703	     18.32271808	    -12.89436082	     -5.48725176	    -68.43918435	      4.09157054	      0.37496622	      0.00000000	     12.64726612	     12.10152581	     -3.14852342	    -13.36395945	     10.04822937	    -10.52891597	      0.00000000	     -7.79154835	    -11.01624668	     -0.18215039
      4.64500000	     -2.92439348	      8.40538812	     -4.26707103	      0.51657051	      1.02258729	     -0.22765437	     18.82768637	    -12.71511165	     -5.77439818	    -68.37632398	      4.96298561	      0.55178771	      0.00000000	     11.95083795	     12.05918511	     -2.64360919	    -12.95342948	     10.06953746	    -10.73555299	      0.00000000	     -7.93416612	    -10.72909870	     -0.47480299
      4.65000000	     -2.86962610	      8.21243185	     -4.04759124	      0.52249914	      1.02347981	     -0.22836506	     19.32994940	    -12.52031349	     -6.07022327	    -68.24680272	      5.80210978	      0.72587550	      0.00000000	     11.26821855	     11.99808038	     -2.14480301	    -12.54084956	     10.07429780	    -10.93765968	      0.00000000	     -8.06350591	    -10.43045866	     -0.77451564
      4.65500000	     -2.80495200	      8.01597277	     -3.83067804	      0.52841421	      1.02433309	     -0.22908529	     19.81203811	    -12.31969535	     -6.36733970	    -68.05858348	      6.60075322	      0.88522542	      0.00000000	     10.56409868	     11.92991583	     -1.60159519	    -12.10660572	     10.08668304	    -11.17563543	      0.00000000	     -8.20523425	    -10.12546903	     -1.07007050
      4.66000000	     -2.75741289	      7.80657497	     -3.60670262	      0.53431929	      1.02515825	     -0.22977627	     20.29033300	    -12.09448777	     -6.66098702	    -67.79637915	      7.39152014	      1.07755660	      0.00000000	      9.88304360	     11.83525293	     -1.11704013	    -11.67631969	     10.07532523	    -11.38890857	      0.00000000	     -8.32371657	     -9.80642358	     -1.37514622
      4.66500000	     -2.68682430	      7.60479269	     -3.38422297	      0.54020396	      1.02595005	     -0.23046008	     20.73482170	    -11.87176086	     -6.95037921	    -67.47432111	      8.15506516	      1.23567474	      0.00000000	      9.16189319	     11.74518560	     -0.54214252	    -11.21711292	     10.06086229	    -11.64744158	      0.00000000	     -8.47216279	     -9.50064414	     -1.65498572
      4.67000000	     -2.63692983	      7.39436357	     -3.15538585	      0.54607386	      1.02669681	     -0.23111296	     21.18110649	    -11.62805480	     -7.22881136	    -67.08178776	      8.92539256	      1.43919478	      0.00000000	      8.47182548	     11.63202302	     -0.03543776	    -10.76737136	     10.02977875	    -11.87250269	      0.00000000	     -8.59665026	     -9.18406380	     -1.94686501
      4.67500000	     -2.58628508	      7.18321959	     -2.92668184	      0.55194305	      1.02738893	     -0.23175209	     21.61204167	    -11.37643708	     -7.49819245	    -66.62651491	      9.68413190	      1.65370014	      0.00000000	      7.77639256	     11.51071851	      0.47909471	    -10.30521897	      9.99921202	    -12.11838946	      0.00000000	     -8.71930501	     -8.86676150	     -2.24022293
      4.68000000	     -2.51818254	      6.97950521	     -2.70180740	      0.55780033	      1.02803636	     -0.23237664	     22.01277645	    -11.12643086	     -7.75701080	    -66.11000433	     10.43238059	      1.86175474	      0.00000000	      7.05241791	     11.39059572	      1.03928403	     -9.82138606	      9.96632558	    -12.39923214	      0.00000000	     -8.86014611	     -8.55979039	     -2.51793917
